HIERARCHY
ROOT hip
{
	OFFSET 0.000000 0.000000 0.000000 
	CHANNELS 6 Xposition Yposition Zposition Xrotation Zrotation Yrotation
	JOINT abdomen
	{
		OFFSET 0.000000 3.402643 0.000000 
		CHANNELS 3 Xrotation Zrotation Yrotation
		JOINT chest
		{
			OFFSET 0.000000 8.438565 -0.680529 
			CHANNELS 3 Xrotation Zrotation Yrotation
			JOINT neck
			{
				OFFSET 0.000000 10.207942 -0.272212 
				CHANNELS 3 Xrotation Zrotation Yrotation
				JOINT head
				{
					OFFSET 0.000000 3.130431 0.000000 
					CHANNELS 3 Xrotation Zrotation Yrotation
					End Site
					{
						OFFSET 0.000000 3.130435 0.000000 
					}
				}
			}
			JOINT lCollar
			{
				OFFSET 3.470700 6.669187 -0.816635 
				CHANNELS 3 Yrotation Zrotation Xrotation
				JOINT lShldr
				{
					OFFSET 3.198488 0.000000 0.000000 
					CHANNELS 3 Zrotation Yrotation Xrotation
					JOINT lForeArm
					{
						OFFSET 10.139888 0.000000 0.000000 
						CHANNELS 3 Yrotation Zrotation Xrotation
						JOINT lHand
						{
							OFFSET 8.370511 0.000000 0.000000 
							CHANNELS 3 Zrotation Yrotation Xrotation
							End Site
							{
								OFFSET 4.083176 0.000000 0.000000 
							}
						}
					}
				}
			}
			JOINT rCollar
			{
				OFFSET -3.470700 6.669187 -0.816635 
				CHANNELS 3 Yrotation Zrotation Xrotation
				JOINT rShldr
				{
					OFFSET -3.198488 0.000000 0.000000 
					CHANNELS 3 Zrotation Yrotation Xrotation
					JOINT rForeArm
					{
						OFFSET -10.139888 0.000000 0.000000 
						CHANNELS 3 Yrotation Zrotation Xrotation
						JOINT rHand
						{
							OFFSET -8.370511 0.000000 0.000000 
							CHANNELS 3 Zrotation Yrotation Xrotation
							End Site
							{
								OFFSET -4.083176 0.000000 0.000000 
							}
						}
					}
				}
			}
		}
	}
	JOINT lThigh
	{
		OFFSET 5.308129 -1.633274 1.361059 
		CHANNELS 3 Xrotation Zrotation Yrotation
		JOINT lShin
		{
			OFFSET -2.041588 -20.007561 0.000000 
			CHANNELS 3 Xrotation Zrotation Yrotation
			JOINT lFoot
			{
				OFFSET 0.000000 -19.190928 -1.224953 
				CHANNELS 3 Xrotation Yrotation Zrotation
				End Site
				{
					OFFSET 0.000000 -2.449906 4.627600 
				}
			}
		}
	}
	JOINT rThigh
	{
		OFFSET -5.308129 -1.633274 1.361059 
		CHANNELS 3 Xrotation Zrotation Yrotation
		JOINT rShin
		{
			OFFSET 2.041588 -20.007561 0.000000 
			CHANNELS 3 Xrotation Zrotation Yrotation
			JOINT rFoot
			{
				OFFSET 0.000000 -19.190928 -1.224953 
				CHANNELS 3 Xrotation Yrotation Zrotation
				End Site
				{
					OFFSET 0.000000 -2.449906 4.627600 
				}
			}
		}
	}
}
MOTION
Frames: 10
Frame Time: 0.016667
2.396553 60.901455 46.188721 179.218262 2.021297 -5.984588 -27.796133 -5.117937 -0.999317 15.113549 -3.300011 -1.232690 -27.779434 -4.521381 -3.022921 -0.567528 3.603339 -2.359818 1.993405 -2.003458 -0.008156 52.224522 -38.275150 -96.153221 -37.672810 -0.284912 -1.132967 -0.068040 0.061611 25.673855 -2.003062 1.991579 -0.506922 -55.634781 35.103947 -108.834068 26.463835 -0.125786 -0.493727 0.071690 -0.063236 22.324226 -28.103941 1.855418 8.833120 114.192657 2.604503 3.752721 -35.388916 -0.321974 -1.348907 -18.717607 4.471875 -1.316587 92.683121 -6.553178 -4.968383 6.074074 1.323049 1.498123 
2.396703 61.181297 46.495823 178.993484 2.069993 -6.510944 -27.676891 -4.872188 -0.603706 15.037695 -3.452122 -1.014759 -28.392935 -4.650649 -2.861950 -0.812135 3.583625 -2.326057 1.993405 -2.003458 -0.008156 50.169941 -37.294518 -96.751045 -42.292847 -0.359589 -1.171984 -0.072984 0.053146 24.902361 -2.003062 1.991579 -0.506922 -52.756424 34.199486 -104.350327 31.424643 -0.077736 -0.501825 0.071412 -0.073585 19.628916 -33.623108 3.096106 9.514716 111.792389 2.803415 3.795208 -33.550465 0.166007 -1.063470 -13.369265 3.690725 -1.680731 93.263321 -6.494128 -4.968709 6.733157 2.446007 0.746253 
2.426075 61.253448 46.697144 179.042328 2.099316 -7.173732 -27.602539 -4.511345 -0.418856 15.094428 -3.328600 -0.877856 -28.800920 -4.332641 -2.778065 -0.988455 3.759208 -2.213111 1.993405 -2.003458 -0.008156 48.858883 -35.572903 -98.367355 -45.311089 -0.400855 -1.210560 -0.052219 0.052556 26.240250 -2.003062 1.991579 -0.506922 -49.331066 33.259842 -100.968849 37.762428 -0.023814 -0.525081 0.073720 -0.074368 17.841808 -38.653267 4.431038 10.057986 108.572380 3.053977 3.904735 -31.743298 0.836483 -0.759256 -8.075715 2.372847 -2.381258 93.312454 -6.504592 -4.981292 7.356903 3.492798 0.054443 
2.469814 61.162167 46.806545 179.413666 2.109265 -7.853598 -27.604797 -4.069225 -0.346200 15.315221 -3.051914 -0.796639 -28.880833 -3.875414 -2.796869 -0.998530 4.003300 -2.091033 1.993405 -2.003458 -0.008156 48.541496 -33.386990 -100.998817 -46.678600 -0.413268 -1.220991 -0.054530 0.042749 28.896498 -2.003062 1.991579 -0.506922 -46.103401 32.036747 -98.822487 43.797680 0.025104 -0.538207 0.073897 -0.074425 17.705090 -43.323948 5.701448 10.240158 104.840996 3.396322 4.007293 -30.047693 1.206096 -0.642112 -2.869643 0.663499 -3.441021 93.074684 -6.650867 -5.044887 7.843824 4.060348 -0.256582 
2.524744 60.933846 46.864819 179.941360 2.109374 -8.488484 -27.676435 -3.598989 -0.311606 15.506309 -2.729107 -0.717851 -28.729418 -3.752410 -2.780017 -0.920348 4.120564 -2.019092 1.993405 -2.003458 -0.008156 49.082508 -30.878292 -103.944992 -46.815495 -0.424155 -1.222410 -0.053545 0.042190 30.224623 -2.003062 1.991579 -0.506922 -44.161610 30.382935 -98.155800 47.664921 0.049866 -0.562259 0.072948 -0.074115 18.437508 -47.655510 6.582259 9.865692 100.695328 3.818844 4.085774 -28.358831 1.145057 -0.701525 2.234403 -1.278475 -4.819619 92.386024 -6.826436 -5.137868 8.386848 3.859415 0.102608 
2.596494 60.561722 46.901203 -179.530914 2.177661 -8.946661 -27.731972 -3.181854 -0.301623 15.591995 -2.549225 -0.642907 -28.619627 -3.962349 -2.606705 -0.832219 4.110896 -1.944275 1.993405 -2.003458 -0.008156 50.402000 -28.063911 -106.700859 -45.682304 -0.406814 -1.213295 -0.054283 0.042611 29.228527 -2.003062 1.991579 -0.506922 -44.178391 28.497337 -99.392815 48.612221 0.060804 -0.571203 0.072178 -0.073854 19.033213 -51.611145 6.826316 8.884337 96.507271 4.336113 4.189607 -26.717960 1.145216 -0.934171 7.484521 -3.337902 -6.383536 91.341019 -7.051310 -5.201803 8.608832 3.325543 0.911959 
2.683159 60.050549 46.924339 -178.983612 2.206685 -9.208560 -27.712421 -2.827691 -0.342116 15.748981 -2.594272 -0.614268 -28.600657 -4.229260 -2.317053 -0.763637 4.062140 -1.821540 1.993405 -2.003458 -0.008156 52.518665 -25.143417 -109.179901 -43.093697 -0.364108 -1.183107 -0.055815 0.043433 27.187515 -2.003062 1.991579 -0.506922 -45.938084 26.726236 -102.981148 47.157131 0.054847 -0.561795 0.071537 -0.073630 19.531260 -55.215080 6.442865 7.308970 92.264908 4.960701 4.316274 -24.752569 1.606406 -1.206758 12.574197 -5.037688 -7.922184 90.057892 -7.364125 -5.302970 9.025330 2.440189 2.110699 
2.767212 59.418468 46.942467 -178.348618 1.981599 -9.464063 -27.684061 -2.465008 -0.367847 16.015690 -2.797385 -0.568693 -28.615707 -4.357462 -2.040581 -0.714660 4.032890 -1.690764 1.993405 -2.003458 -0.008156 55.332123 -22.593628 -111.276459 -39.186722 -0.311241 -1.148239 -0.052461 0.052674 25.976580 -2.003062 1.991579 -0.506922 -48.834980 25.179157 -108.628807 43.924637 0.030945 -0.545036 0.070074 -0.073094 20.673836 -58.498085 5.897164 5.097063 87.995697 5.625301 4.418711 -22.512484 2.829450 -1.585392 17.298376 -5.867829 -8.710549 88.527245 -7.696281 -5.407592 9.916003 1.605224 3.426889 
2.815603 58.666344 46.981358 -177.694351 1.658813 -9.874372 -27.656427 -2.076219 -0.289303 16.340792 -2.961508 -0.477572 -28.378738 -4.315582 -1.911132 -0.548239 4.042784 -1.610822 1.993405 -2.003458 -0.008156 58.412201 -20.753452 -112.357941 -34.186153 -0.231499 -1.101660 -0.051923 0.052409 26.562515 -2.003062 1.991579 -0.506922 -52.513004 23.589451 -115.467682 38.983131 -0.013668 -0.529151 0.060733 -0.062733 23.408213 -61.548038 5.234120 2.477065 84.156288 6.377852 4.522085 -20.421532 4.919702 -2.112901 21.527834 -6.083465 -8.648777 87.013206 -8.047885 -5.506172 11.213199 0.935683 4.552528 
2.810364 57.776302 47.058510 -177.254547 1.775305 -10.432197 -27.612587 -1.808712 -0.040657 16.712486 -2.965179 -0.333515 -27.822973 -4.138961 -1.871392 -0.254564 4.121053 -1.531919 1.993405 -2.003458 -0.008156 61.243526 -20.015585 -113.333488 -28.590340 -0.146082 -1.058324 -0.054749 0.042869 28.603529 -2.003062 1.991579 -0.506922 -56.576199 21.745371 -122.082176 32.274204 -0.068655 -0.511047 0.050293 -0.051562 28.359381 -64.003220 3.944797 -0.254771 80.598030 7.286567 4.750347 -18.595808 7.924119 -2.905043 25.336464 -6.483863 -8.122910 86.041489 -8.301880 -5.583072 12.572924 0.654573 5.351588 
